<svg version="1.2" baseProfile="tiny" id="EdgeSVG_r7eUT" x="0px" y="0px" width="52.696px" height="37.304px" viewBox="0 0 52.696 37.304" xmlns:xlink="http://www.w3.org/1999/xlink" xmlns="http://www.w3.org/2000/svg">
  <path style="fill:#FFFFFF;" d="M33.735,19.843c-0.666,0-1.208-0.542-1.208-1.208c0-0.667,0.542-1.209,1.208-1.209&#xD;&#xA;&#x9;&#x9;s1.208,0.542,1.208,1.209C34.943,19.301,34.401,19.843,33.735,19.843z M35.018,16.414c0.184,0.106,0.392,0.162,0.603,0.162&#xD;&#xA;&#x9;&#x9;c0.431,0,0.832-0.231,1.048-0.604c0.333-0.577,0.135-1.318-0.444-1.652c-0.182-0.105-0.39-0.161-0.601-0.161&#xD;&#xA;&#x9;&#x9;c-0.432,0-0.833,0.231-1.049,0.604c-0.161,0.28-0.204,0.605-0.12,0.918C34.538,15.992,34.738,16.251,35.018,16.414z M31.243,22.949&#xD;&#xA;&#x9;&#x9;c0.186,0.106,0.395,0.163,0.604,0.163c0.431,0,0.832-0.231,1.048-0.604c0.161-0.28,0.204-0.605,0.12-0.918&#xD;&#xA;&#x9;&#x9;c-0.084-0.315-0.279-0.569-0.563-0.733c-0.183-0.105-0.391-0.161-0.602-0.161c-0.432,0-0.833,0.231-1.049,0.605&#xD;&#xA;&#x9;&#x9;c-0.161,0.278-0.204,0.604-0.12,0.917C30.764,22.528,30.964,22.788,31.243,22.949z M27.469,22.949&#xD;&#xA;&#x9;&#x9;c0.186,0.106,0.395,0.163,0.604,0.163c0.431,0,0.832-0.231,1.048-0.605c0.161-0.278,0.203-0.604,0.119-0.916&#xD;&#xA;&#x9;&#x9;c-0.083-0.313-0.283-0.573-0.563-0.734c-0.183-0.105-0.391-0.161-0.602-0.161c-0.432,0-0.833,0.231-1.049,0.604&#xD;&#xA;&#x9;&#x9;c-0.161,0.28-0.204,0.605-0.12,0.918C26.992,22.532,27.187,22.786,27.469,22.949z M38.79,22.949&#xD;&#xA;&#x9;&#x9;c0.186,0.106,0.395,0.163,0.604,0.163c0.431,0,0.832-0.231,1.048-0.604c0.161-0.28,0.204-0.605,0.12-0.918&#xD;&#xA;&#x9;&#x9;c-0.084-0.315-0.279-0.569-0.563-0.733c-0.183-0.105-0.391-0.161-0.602-0.161c-0.432,0-0.834,0.231-1.049,0.604&#xD;&#xA;&#x9;&#x9;c-0.161,0.28-0.204,0.605-0.12,0.918C38.313,22.533,38.507,22.786,38.79,22.949z M35.623,23.112c0.21,0,0.419-0.057,0.604-0.162&#xD;&#xA;&#x9;&#x9;c0.279-0.162,0.479-0.422,0.563-0.734c0.084-0.312,0.041-0.637-0.12-0.917c-0.216-0.373-0.617-0.604-1.049-0.604&#xD;&#xA;&#x9;&#x9;c-0.21,0-0.419,0.057-0.603,0.162c-0.577,0.333-0.775,1.074-0.442,1.651C34.791,22.88,35.192,23.112,35.623,23.112z M31.849,16.576&#xD;&#xA;&#x9;&#x9;c0.21,0,0.419-0.057,0.604-0.162c0.577-0.333,0.775-1.074,0.442-1.65c-0.216-0.373-0.617-0.604-1.049-0.604&#xD;&#xA;&#x9;&#x9;c-0.211,0-0.42,0.056-0.603,0.161c-0.279,0.162-0.479,0.422-0.563,0.735c-0.085,0.315-0.043,0.632,0.12,0.916&#xD;&#xA;&#x9;&#x9;C31.017,16.344,31.418,16.576,31.849,16.576z M28.076,16.576c0.21,0,0.419-0.057,0.603-0.162c0.577-0.333,0.775-1.074,0.443-1.65&#xD;&#xA;&#x9;&#x9;c-0.216-0.373-0.617-0.604-1.049-0.604c-0.211,0-0.419,0.056-0.603,0.162c-0.279,0.161-0.479,0.422-0.563,0.734&#xD;&#xA;&#x9;&#x9;c-0.084,0.311-0.041,0.636,0.12,0.916C27.244,16.344,27.645,16.576,28.076,16.576z M39.396,16.576c0.21,0,0.419-0.057,0.604-0.162&#xD;&#xA;&#x9;&#x9;c0.279-0.162,0.479-0.422,0.563-0.734c0.085-0.315,0.043-0.633-0.12-0.916c-0.216-0.373-0.617-0.604-1.049-0.604&#xD;&#xA;&#x9;&#x9;c-0.211,0-0.419,0.056-0.603,0.162c-0.279,0.161-0.479,0.422-0.563,0.734c-0.085,0.315-0.043,0.632,0.12,0.916&#xD;&#xA;&#x9;&#x9;C38.564,16.344,38.965,16.576,39.396,16.576z M38.716,18.635c0-0.667-0.542-1.209-1.208-1.209S36.3,17.968,36.3,18.635&#xD;&#xA;&#x9;&#x9;c0,0.666,0.542,1.208,1.208,1.208S38.716,19.301,38.716,18.635z M31.169,18.635c0-0.667-0.542-1.209-1.208-1.209&#xD;&#xA;&#x9;&#x9;s-1.208,0.542-1.208,1.209c0,0.666,0.542,1.208,1.208,1.208S31.169,19.301,31.169,18.635z M38.791,9.878&#xD;&#xA;&#x9;&#x9;c0.184,0.106,0.393,0.162,0.604,0.162c0.431,0,0.833-0.231,1.048-0.604c0.161-0.278,0.203-0.604,0.119-0.917&#xD;&#xA;&#x9;&#x9;c-0.083-0.313-0.283-0.573-0.563-0.734c-0.183-0.106-0.392-0.162-0.603-0.162c-0.431,0-0.833,0.231-1.048,0.604&#xD;&#xA;&#x9;&#x9;c-0.161,0.28-0.204,0.605-0.12,0.918C38.311,9.456,38.511,9.716,38.791,9.878z M40.115,11.787c-0.084,0.311-0.041,0.637,0.12,0.916&#xD;&#xA;&#x9;&#x9;c0.216,0.373,0.617,0.604,1.049,0.604c0.211,0,0.42-0.056,0.603-0.161c0.577-0.333,0.775-1.074,0.442-1.651&#xD;&#xA;&#x9;&#x9;c-0.216-0.373-0.617-0.604-1.048-0.604c-0.211,0-0.42,0.056-0.603,0.162C40.398,11.214,40.198,11.475,40.115,11.787z M43.168,10.04&#xD;&#xA;&#x9;&#x9;c0.327,0,0.623-0.122,0.854-0.354c0.229-0.228,0.354-0.531,0.354-0.854c0-0.667-0.542-1.208-1.208-1.208&#xD;&#xA;&#x9;&#x9;c-0.667,0-1.209,0.542-1.209,1.208C41.959,9.498,42.501,10.04,43.168,10.04z M35.622,10.04c0.666,0,1.208-0.542,1.208-1.208&#xD;&#xA;&#x9;&#x9;c0-0.667-0.542-1.208-1.208-1.208s-1.208,0.542-1.208,1.209C34.414,9.498,34.956,10.04,35.622,10.04z M36.461,11.495&#xD;&#xA;&#x9;&#x9;c-0.161,0.278-0.203,0.604-0.119,0.917c0.083,0.313,0.283,0.573,0.561,0.733c0.186,0.107,0.395,0.163,0.604,0.163&#xD;&#xA;&#x9;&#x9;c0.431,0,0.832-0.231,1.048-0.604c0.161-0.28,0.204-0.605,0.12-0.918c-0.083-0.312-0.283-0.572-0.562-0.732&#xD;&#xA;&#x9;&#x9;c-0.185-0.106-0.394-0.163-0.604-0.163C37.079,10.891,36.677,11.123,36.461,11.495z M32.688,11.495&#xD;&#xA;&#x9;&#x9;c-0.161,0.278-0.203,0.604-0.119,0.917c0.083,0.313,0.283,0.573,0.561,0.733c0.186,0.107,0.395,0.163,0.604,0.163&#xD;&#xA;&#x9;&#x9;c0.431,0,0.832-0.232,1.048-0.604c0.161-0.28,0.204-0.605,0.12-0.918c-0.083-0.312-0.283-0.572-0.562-0.732&#xD;&#xA;&#x9;&#x9;c-0.185-0.106-0.394-0.163-0.604-0.163C33.305,10.891,32.904,11.123,32.688,11.495z M44.008,11.495&#xD;&#xA;&#x9;&#x9;c-0.161,0.278-0.203,0.604-0.119,0.917c0.083,0.313,0.283,0.573,0.561,0.733c0.186,0.107,0.395,0.163,0.604,0.163&#xD;&#xA;&#x9;&#x9;c0.431,0,0.832-0.231,1.048-0.604c0.161-0.28,0.204-0.605,0.12-0.918c-0.083-0.312-0.283-0.572-0.562-0.732&#xD;&#xA;&#x9;&#x9;c-0.185-0.106-0.394-0.163-0.604-0.163C44.625,10.891,44.224,11.123,44.008,11.495z M28.68,27.393&#xD;&#xA;&#x9;&#x9;c-0.186-0.106-0.395-0.163-0.604-0.163c-0.431,0-0.833,0.231-1.048,0.603c-0.162,0.281-0.205,0.607-0.121,0.92&#xD;&#xA;&#x9;&#x9;c0.083,0.311,0.283,0.571,0.562,0.732c0.185,0.106,0.394,0.162,0.604,0.162c0.432,0,0.833-0.231,1.048-0.604&#xD;&#xA;&#x9;&#x9;C29.455,28.466,29.256,27.725,28.68,27.393z M27.356,25.485c0.085-0.317,0.043-0.635-0.121-0.919&#xD;&#xA;&#x9;&#x9;c-0.215-0.372-0.616-0.604-1.048-0.604c-0.211,0-0.42,0.056-0.604,0.161c-0.278,0.161-0.478,0.422-0.562,0.734&#xD;&#xA;&#x9;&#x9;s-0.041,0.639,0.12,0.917c0.216,0.373,0.617,0.604,1.048,0.604c0.21,0,0.419-0.057,0.604-0.162&#xD;&#xA;&#x9;&#x9;C27.073,26.056,27.272,25.795,27.356,25.485z M23.583,25.485c0.083-0.313,0.041-0.639-0.121-0.919&#xD;&#xA;&#x9;&#x9;c-0.215-0.372-0.616-0.604-1.048-0.604c-0.211,0-0.42,0.056-0.603,0.161c-0.577,0.333-0.775,1.074-0.442,1.651&#xD;&#xA;&#x9;&#x9;c0.216,0.373,0.617,0.604,1.048,0.604c0.21,0,0.419-0.057,0.604-0.162C23.299,26.056,23.499,25.795,23.583,25.485z M31.848,27.23&#xD;&#xA;&#x9;&#x9;c-0.667,0-1.209,0.542-1.209,1.209c0,0.666,0.542,1.208,1.209,1.208c0.322,0,0.626-0.126,0.854-0.354s0.354-0.531,0.354-0.854&#xD;&#xA;&#x9;&#x9;C33.056,27.773,32.514,27.23,31.848,27.23z M24.301,27.23c-0.666,0-1.208,0.543-1.208,1.209s0.542,1.208,1.208,1.208&#xD;&#xA;&#x9;&#x9;s1.208-0.542,1.208-1.208S24.966,27.23,24.301,27.23z M31.007,25.777c0.162-0.281,0.205-0.607,0.121-0.92&#xD;&#xA;&#x9;&#x9;c-0.083-0.311-0.283-0.571-0.563-0.732c-0.184-0.106-0.392-0.162-0.603-0.162c-0.431,0-0.832,0.231-1.048,0.604&#xD;&#xA;&#x9;&#x9;c-0.161,0.279-0.203,0.604-0.119,0.917c0.083,0.313,0.283,0.573,0.561,0.733c0.186,0.106,0.395,0.163,0.604,0.163&#xD;&#xA;&#x9;&#x9;C30.391,26.379,30.792,26.148,31.007,25.777z M39.393,27.23c-0.21,0-0.418,0.056-0.603,0.162c-0.577,0.333-0.775,1.074-0.442,1.651&#xD;&#xA;&#x9;&#x9;c0.215,0.372,0.616,0.604,1.048,0.604c0.211,0,0.419-0.056,0.604-0.162c0.279-0.162,0.479-0.422,0.563-0.734&#xD;&#xA;&#x9;&#x9;c0.084-0.311,0.041-0.636-0.12-0.915C40.226,27.461,39.824,27.23,39.393,27.23z M43.168,27.231c-0.667,0-1.209,0.542-1.209,1.208&#xD;&#xA;&#x9;&#x9;s0.542,1.208,1.209,1.208c0.666,0,1.208-0.542,1.208-1.208S43.834,27.231,43.168,27.231z M35.621,27.231&#xD;&#xA;&#x9;&#x9;c-0.666,0-1.207,0.541-1.207,1.209c-0.001,0.322,0.125,0.625,0.353,0.853c0.229,0.229,0.533,0.354,0.855,0.354&#xD;&#xA;&#x9;&#x9;c0.666,0,1.208-0.542,1.208-1.209C36.83,27.772,36.288,27.231,35.621,27.231z M42.329,25.775c0.16-0.278,0.203-0.604,0.119-0.917&#xD;&#xA;&#x9;&#x9;s-0.283-0.573-0.563-0.734c-0.183-0.105-0.391-0.161-0.602-0.161c-0.432,0-0.833,0.231-1.048,0.604&#xD;&#xA;&#x9;&#x9;c-0.333,0.577-0.135,1.318,0.443,1.651c0.184,0.106,0.392,0.162,0.602,0.162C41.71,26.379,42.113,26.148,42.329,25.775z&#xD;&#xA;&#x9;&#x9; M45.658,24.124c-0.183-0.105-0.391-0.161-0.602-0.161c-0.432,0-0.833,0.231-1.048,0.604c-0.161,0.28-0.204,0.605-0.12,0.919&#xD;&#xA;&#x9;&#x9;c0.083,0.311,0.283,0.571,0.561,0.731c0.186,0.106,0.395,0.163,0.604,0.163c0.431,0,0.833-0.231,1.048-0.604&#xD;&#xA;&#x9;&#x9;C46.434,25.198,46.236,24.457,45.658,24.124z M38.674,25.483c0.084-0.313,0.042-0.638-0.119-0.916&#xD;&#xA;&#x9;&#x9;c-0.216-0.373-0.617-0.604-1.049-0.604c-0.211,0-0.419,0.056-0.602,0.161c-0.28,0.162-0.48,0.422-0.563,0.735&#xD;&#xA;&#x9;&#x9;c-0.084,0.311-0.041,0.637,0.119,0.915c0.217,0.374,0.618,0.605,1.049,0.605c0.21,0,0.419-0.057,0.604-0.162&#xD;&#xA;&#x9;&#x9;C38.391,26.056,38.591,25.795,38.674,25.483z M34.901,25.483c0.084-0.313,0.042-0.638-0.119-0.916&#xD;&#xA;&#x9;&#x9;c-0.216-0.373-0.617-0.604-1.048-0.604c-0.211,0-0.42,0.056-0.603,0.161c-0.284,0.164-0.479,0.418-0.563,0.735&#xD;&#xA;&#x9;&#x9;c-0.084,0.311-0.041,0.636,0.12,0.916c0.216,0.373,0.617,0.604,1.048,0.604c0.21,0,0.419-0.057,0.604-0.162&#xD;&#xA;&#x9;&#x9;C34.618,26.056,34.818,25.795,34.901,25.483z M28.076,10.04c0.211,0,0.42-0.056,0.603-0.162c0.577-0.333,0.775-1.074,0.443-1.651&#xD;&#xA;&#x9;&#x9;c-0.216-0.373-0.617-0.604-1.049-0.604c-0.21,0-0.418,0.056-0.603,0.162c-0.577,0.333-0.775,1.074-0.442,1.65&#xD;&#xA;&#x9;&#x9;C27.244,9.808,27.645,10.04,28.076,10.04z M31.848,10.04c0.666,0,1.208-0.542,1.208-1.208c0-0.667-0.542-1.208-1.208-1.208&#xD;&#xA;&#x9;&#x9;c-0.667,0-1.209,0.542-1.209,1.208C30.639,9.498,31.181,10.04,31.848,10.04z M24.301,10.04c0.666,0,1.208-0.542,1.208-1.209&#xD;&#xA;&#x9;&#x9;c0-0.666-0.542-1.208-1.208-1.208s-1.208,0.542-1.208,1.208c0,0.323,0.125,0.626,0.354,0.854&#xD;&#xA;&#x9;&#x9;C23.678,9.917,23.974,10.04,24.301,10.04z M25.141,11.494c-0.161,0.28-0.204,0.605-0.12,0.918c0.083,0.312,0.283,0.572,0.563,0.733&#xD;&#xA;&#x9;&#x9;c0.183,0.105,0.391,0.161,0.602,0.161c0.432,0,0.833-0.231,1.049-0.604c0.333-0.577,0.135-1.318-0.441-1.65&#xD;&#xA;&#x9;&#x9;c-0.185-0.106-0.394-0.163-0.604-0.163C25.759,10.89,25.357,11.122,25.141,11.494z M21.368,11.495&#xD;&#xA;&#x9;&#x9;c-0.161,0.278-0.203,0.604-0.119,0.917c0.083,0.313,0.283,0.573,0.563,0.734c0.183,0.105,0.391,0.161,0.602,0.161&#xD;&#xA;&#x9;&#x9;c0.432,0,0.833-0.231,1.048-0.603c0.333-0.578,0.135-1.319-0.44-1.651c-0.185-0.106-0.394-0.163-0.604-0.163&#xD;&#xA;&#x9;&#x9;C21.986,10.89,21.583,11.122,21.368,11.495z M28.794,11.788c-0.084,0.311-0.041,0.636,0.12,0.915&#xD;&#xA;&#x9;&#x9;c0.216,0.373,0.617,0.604,1.048,0.604c0.211,0,0.42-0.056,0.604-0.162c0.279-0.161,0.479-0.421,0.563-0.733&#xD;&#xA;&#x9;&#x9;c0.083-0.313,0.041-0.638-0.12-0.917c-0.216-0.373-0.617-0.605-1.048-0.605c-0.211,0-0.42,0.056-0.604,0.162&#xD;&#xA;&#x9;&#x9;C29.078,11.214,28.877,11.474,28.794,11.788z M46.263,18.635c0-0.667-0.542-1.209-1.208-1.209s-1.208,0.542-1.208,1.209&#xD;&#xA;&#x9;&#x9;c0,0.666,0.542,1.208,1.208,1.208S46.263,19.301,46.263,18.635z M42.563,22.949c0.186,0.106,0.395,0.163,0.604,0.163&#xD;&#xA;&#x9;&#x9;c0.431,0,0.832-0.231,1.048-0.605c0.161-0.278,0.203-0.604,0.119-0.916c-0.083-0.313-0.283-0.573-0.563-0.734&#xD;&#xA;&#x9;&#x9;c-0.183-0.105-0.391-0.161-0.602-0.161c-0.432,0-0.833,0.231-1.049,0.604c-0.161,0.279-0.203,0.605-0.12,0.918&#xD;&#xA;&#x9;&#x9;C42.086,22.533,42.281,22.786,42.563,22.949z M43.169,16.576c0.21,0,0.419-0.057,0.603-0.162c0.577-0.333,0.775-1.074,0.443-1.65&#xD;&#xA;&#x9;&#x9;c-0.216-0.373-0.617-0.604-1.049-0.604c-0.211,0-0.42,0.056-0.603,0.161c-0.279,0.162-0.479,0.422-0.563,0.735&#xD;&#xA;&#x9;&#x9;c-0.085,0.315-0.043,0.632,0.12,0.916C42.337,16.344,42.739,16.576,43.169,16.576z M42.49,18.635c0-0.667-0.542-1.209-1.208-1.209&#xD;&#xA;&#x9;&#x9;s-1.208,0.542-1.208,1.209c0,0.666,0.542,1.208,1.208,1.208S42.49,19.301,42.49,18.635z M23.623,18.635&#xD;&#xA;&#x9;&#x9;c0-0.667-0.542-1.209-1.208-1.209s-1.208,0.542-1.208,1.209c0,0.666,0.542,1.208,1.208,1.208S23.623,19.301,23.623,18.635z&#xD;&#xA;&#x9;&#x9; M23.698,16.414c0.184,0.106,0.392,0.162,0.603,0.162c0.431,0,0.832-0.231,1.048-0.604c0.161-0.279,0.203-0.604,0.119-0.917&#xD;&#xA;&#x9;&#x9;c-0.083-0.313-0.283-0.574-0.563-0.735c-0.182-0.105-0.39-0.161-0.601-0.161c-0.432,0-0.833,0.231-1.049,0.604&#xD;&#xA;&#x9;&#x9;c-0.161,0.28-0.204,0.606-0.12,0.917C23.218,15.992,23.417,16.252,23.698,16.414z M24.302,23.112c0.21,0,0.419-0.057,0.604-0.162&#xD;&#xA;&#x9;&#x9;c0.577-0.333,0.775-1.074,0.442-1.651c-0.216-0.373-0.617-0.604-1.049-0.604c-0.21,0-0.419,0.057-0.603,0.162&#xD;&#xA;&#x9;&#x9;c-0.577,0.333-0.775,1.074-0.442,1.651C23.47,22.88,23.872,23.112,24.302,23.112z M19.809,25.485&#xD;&#xA;&#x9;&#x9;c0.083-0.313,0.041-0.639-0.121-0.919c-0.215-0.372-0.617-0.604-1.049-0.604c-0.211,0-0.419,0.056-0.602,0.161&#xD;&#xA;&#x9;&#x9;c-0.577,0.333-0.775,1.074-0.442,1.651c0.216,0.373,0.617,0.604,1.048,0.604c0.21,0,0.418-0.056,0.604-0.163&#xD;&#xA;&#x9;&#x9;C19.526,26.056,19.725,25.795,19.809,25.485z M20.528,27.23c-0.666,0-1.208,0.543-1.208,1.209s0.542,1.208,1.208,1.208&#xD;&#xA;&#x9;&#x9;s1.208-0.542,1.208-1.208S21.193,27.23,20.528,27.23z M20.528,10.04c0.666,0,1.208-0.542,1.208-1.209&#xD;&#xA;&#x9;&#x9;c0-0.666-0.542-1.208-1.208-1.208S19.32,8.165,19.32,8.831c0,0.323,0.125,0.626,0.354,0.854&#xD;&#xA;&#x9;&#x9;C19.905,9.917,20.201,10.04,20.528,10.04z M17.594,11.495c-0.161,0.278-0.203,0.604-0.119,0.917&#xD;&#xA;&#x9;&#x9;c0.083,0.313,0.283,0.573,0.563,0.734c0.183,0.105,0.391,0.161,0.602,0.161c0.432,0,0.833-0.231,1.048-0.603&#xD;&#xA;&#x9;&#x9;c0.333-0.578,0.135-1.319-0.44-1.651c-0.185-0.106-0.394-0.163-0.604-0.163C18.211,10.89,17.81,11.122,17.594,11.495z&#xD;&#xA;&#x9;&#x9; M19.849,18.635c0-0.667-0.542-1.209-1.208-1.209s-1.208,0.542-1.208,1.209c0,0.666,0.542,1.208,1.208,1.208&#xD;&#xA;&#x9;&#x9;S19.849,19.301,19.849,18.635z M19.924,16.414c0.184,0.106,0.392,0.162,0.603,0.162c0.431,0,0.832-0.231,1.048-0.604&#xD;&#xA;&#x9;&#x9;c0.161-0.279,0.203-0.604,0.119-0.917c-0.083-0.313-0.283-0.574-0.563-0.735c-0.182-0.105-0.39-0.161-0.601-0.161&#xD;&#xA;&#x9;&#x9;c-0.432,0-0.833,0.231-1.049,0.604c-0.161,0.28-0.204,0.606-0.12,0.919C19.444,15.992,19.644,16.251,19.924,16.414z M20.529,23.112&#xD;&#xA;&#x9;&#x9;c0.21,0,0.419-0.057,0.603-0.162c0.284-0.164,0.479-0.418,0.563-0.733c0.083-0.313,0.041-0.639-0.12-0.918&#xD;&#xA;&#x9;&#x9;c-0.216-0.373-0.617-0.604-1.049-0.604c-0.21,0-0.419,0.057-0.603,0.162c-0.577,0.333-0.775,1.074-0.442,1.651&#xD;&#xA;&#x9;&#x9;C19.697,22.88,20.098,23.112,20.529,23.112z M16.035,25.483c0.084-0.312,0.042-0.637-0.12-0.917&#xD;&#xA;&#x9;&#x9;c-0.215-0.372-0.617-0.604-1.049-0.604c-0.211,0-0.419,0.056-0.602,0.161c-0.577,0.333-0.775,1.074-0.442,1.651&#xD;&#xA;&#x9;&#x9;c0.216,0.373,0.617,0.604,1.048,0.604c0.21,0,0.418-0.056,0.604-0.163C15.751,26.056,15.952,25.795,16.035,25.483z M16.754,27.23&#xD;&#xA;&#x9;&#x9;c-0.666,0-1.208,0.543-1.208,1.209s0.542,1.208,1.208,1.208s1.208-0.542,1.208-1.208S17.419,27.23,16.754,27.23z M16.754,10.04&#xD;&#xA;&#x9;&#x9;c0.666,0,1.208-0.542,1.208-1.208c0-0.667-0.542-1.208-1.208-1.208s-1.208,0.542-1.208,1.21c-0.001,0.321,0.125,0.624,0.354,0.853&#xD;&#xA;&#x9;&#x9;C16.131,9.917,16.427,10.04,16.754,10.04z M13.821,11.495c-0.161,0.278-0.203,0.604-0.119,0.917&#xD;&#xA;&#x9;&#x9;c0.083,0.313,0.283,0.573,0.563,0.734c0.183,0.105,0.391,0.161,0.602,0.161c0.432,0,0.833-0.231,1.048-0.603&#xD;&#xA;&#x9;&#x9;c0.333-0.578,0.135-1.319-0.44-1.651c-0.185-0.106-0.394-0.163-0.604-0.163C14.438,10.89,14.037,11.122,13.821,11.495z&#xD;&#xA;&#x9;&#x9; M16.076,18.635c0-0.667-0.542-1.209-1.208-1.209s-1.208,0.542-1.208,1.209c0,0.666,0.542,1.208,1.208,1.208&#xD;&#xA;&#x9;&#x9;S16.076,19.301,16.076,18.635z M16.151,16.414c0.184,0.106,0.392,0.162,0.603,0.162c0.431,0,0.832-0.231,1.048-0.604&#xD;&#xA;&#x9;&#x9;c0.161-0.279,0.203-0.604,0.119-0.917c-0.083-0.313-0.283-0.574-0.563-0.735c-0.182-0.105-0.39-0.161-0.601-0.161&#xD;&#xA;&#x9;&#x9;c-0.432,0-0.833,0.231-1.049,0.604c-0.161,0.28-0.204,0.606-0.12,0.919C15.67,15.992,15.871,16.251,16.151,16.414z M16.755,23.112&#xD;&#xA;&#x9;&#x9;c0.21,0,0.419-0.057,0.604-0.162c0.576-0.333,0.774-1.074,0.442-1.651c-0.216-0.373-0.617-0.604-1.049-0.604&#xD;&#xA;&#x9;&#x9;c-0.21,0-0.419,0.057-0.603,0.162c-0.577,0.333-0.775,1.074-0.442,1.651C15.923,22.88,16.325,23.112,16.755,23.112z M12.261,25.483&#xD;&#xA;&#x9;&#x9;c0.084-0.312,0.041-0.637-0.12-0.917c-0.215-0.372-0.617-0.604-1.049-0.604c-0.211,0-0.42,0.056-0.603,0.161&#xD;&#xA;&#x9;&#x9;c-0.577,0.334-0.775,1.074-0.441,1.651c0.216,0.373,0.617,0.604,1.048,0.604c0.21,0,0.418-0.056,0.604-0.163&#xD;&#xA;&#x9;&#x9;C11.978,26.056,12.178,25.795,12.261,25.483z M12.981,27.23c-0.666,0-1.208,0.543-1.208,1.209s0.542,1.208,1.208,1.208&#xD;&#xA;&#x9;&#x9;s1.208-0.542,1.208-1.208S13.646,27.23,12.981,27.23z M12.981,10.04c0.666,0,1.208-0.542,1.208-1.208&#xD;&#xA;&#x9;&#x9;c0-0.667-0.542-1.208-1.208-1.208s-1.208,0.542-1.208,1.21c-0.001,0.321,0.125,0.624,0.354,0.853&#xD;&#xA;&#x9;&#x9;C12.358,9.917,12.654,10.04,12.981,10.04z M10.047,11.495c-0.333,0.577-0.135,1.317,0.44,1.65c0.185,0.106,0.394,0.162,0.604,0.162&#xD;&#xA;&#x9;&#x9;c0.432,0,0.833-0.231,1.048-0.603c0.333-0.578,0.135-1.319-0.44-1.651c-0.185-0.106-0.394-0.163-0.604-0.163&#xD;&#xA;&#x9;&#x9;C10.665,10.89,10.263,11.122,10.047,11.495z M12.302,18.635c0-0.667-0.542-1.209-1.208-1.209s-1.208,0.542-1.208,1.209&#xD;&#xA;&#x9;&#x9;c0,0.666,0.542,1.208,1.208,1.208S12.302,19.301,12.302,18.635z M12.377,16.414c0.184,0.106,0.392,0.162,0.603,0.162&#xD;&#xA;&#x9;&#x9;c0.431,0,0.832-0.231,1.048-0.604c0.161-0.279,0.203-0.604,0.119-0.917c-0.083-0.313-0.283-0.574-0.563-0.735&#xD;&#xA;&#x9;&#x9;c-0.182-0.105-0.39-0.161-0.601-0.161c-0.432,0-0.833,0.231-1.049,0.604c-0.161,0.28-0.204,0.606-0.12,0.919&#xD;&#xA;&#x9;&#x9;C11.897,15.992,12.097,16.251,12.377,16.414z M12.982,23.112c0.21,0,0.419-0.057,0.602-0.161c0.285-0.165,0.48-0.419,0.564-0.734&#xD;&#xA;&#x9;&#x9;c0.083-0.313,0.041-0.639-0.12-0.917c-0.216-0.374-0.618-0.605-1.049-0.605c-0.21,0-0.419,0.057-0.603,0.162&#xD;&#xA;&#x9;&#x9;c-0.577,0.333-0.775,1.074-0.442,1.651C12.15,22.88,12.551,23.112,12.982,23.112z M8.488,25.483&#xD;&#xA;&#x9;&#x9;c0.084-0.312,0.041-0.637-0.12-0.917c-0.215-0.372-0.617-0.604-1.049-0.604c-0.211,0-0.42,0.056-0.603,0.161&#xD;&#xA;&#x9;&#x9;c-0.576,0.333-0.775,1.075-0.442,1.651c0.216,0.373,0.618,0.604,1.049,0.604c0.21,0,0.418-0.056,0.604-0.163&#xD;&#xA;&#x9;&#x9;C8.205,26.056,8.405,25.795,8.488,25.483z M9.208,27.23C8.542,27.23,8,27.773,8,28.439s0.542,1.208,1.208,1.208&#xD;&#xA;&#x9;&#x9;s1.208-0.542,1.208-1.208S9.873,27.23,9.208,27.23z M9.208,10.04c0.666,0,1.208-0.542,1.208-1.208c0-0.667-0.542-1.208-1.208-1.208&#xD;&#xA;&#x9;&#x9;S8,8.165,8,8.833C7.999,9.154,8.125,9.457,8.353,9.686C8.584,9.917,8.88,10.04,9.208,10.04z M6.714,13.145&#xD;&#xA;&#x9;&#x9;c0.185,0.106,0.394,0.162,0.604,0.162c0.432,0,0.833-0.231,1.048-0.603c0.333-0.578,0.135-1.319-0.44-1.651&#xD;&#xA;&#x9;&#x9;c-0.185-0.106-0.394-0.163-0.604-0.163c-0.431,0-0.833,0.232-1.048,0.604C5.941,12.072,6.139,12.813,6.714,13.145z M7.321,19.843&#xD;&#xA;&#x9;&#x9;c0.666,0,1.208-0.542,1.208-1.208c0-0.667-0.542-1.209-1.208-1.209s-1.209,0.542-1.209,1.209&#xD;&#xA;&#x9;&#x9;C6.112,19.301,6.655,19.843,7.321,19.843z M10.254,15.972c0.161-0.279,0.203-0.604,0.119-0.917&#xD;&#xA;&#x9;&#x9;c-0.083-0.313-0.283-0.574-0.563-0.735c-0.182-0.105-0.39-0.161-0.601-0.161c-0.432,0-0.833,0.231-1.049,0.604&#xD;&#xA;&#x9;&#x9;c-0.161,0.28-0.204,0.606-0.12,0.919c0.083,0.311,0.283,0.57,0.563,0.732c0.184,0.106,0.392,0.162,0.603,0.162&#xD;&#xA;&#x9;&#x9;C9.637,16.576,10.039,16.344,10.254,15.972z M8.161,22.507c0.216,0.373,0.617,0.604,1.048,0.604c0.21,0,0.419-0.057,0.603-0.162&#xD;&#xA;&#x9;&#x9;c0.577-0.333,0.775-1.074,0.443-1.65c-0.216-0.374-0.618-0.605-1.049-0.605c-0.21,0-0.419,0.057-0.603,0.162&#xD;&#xA;&#x9;&#x9;C8.026,21.189,7.828,21.93,8.161,22.507z M27.396,18.635c0-0.667-0.542-1.209-1.208-1.209s-1.208,0.542-1.208,1.209&#xD;&#xA;&#x9;&#x9;c0,0.666,0.542,1.208,1.208,1.208S27.396,19.301,27.396,18.635z"/>
</svg>